<mxfile host="app.diagrams.net" agent="Mozilla/5.0 (Windows NT 10.0; Win64; x64) AppleWebKit/537.36 (KHTML, like Gecko) Chrome/133.0.0.0 Safari/537.36" version="26.0.16">
  <diagram name="Page-1" id="c9db0220-8083-56f3-ca83-edcdcd058819">
    <mxGraphModel dx="851" dy="541" grid="1" gridSize="10" guides="1" tooltips="1" connect="1" arrows="1" fold="1" page="1" pageScale="1.5" pageWidth="826" pageHeight="1169" background="none" math="0" shadow="0">
      <root>
        <mxCell id="0" style=";html=1;" />
        <mxCell id="1" style=";html=1;" parent="0" />
        <mxCell id="QFDca40fuUY0NI3CXHvM-3" value="Header" style="rounded=0;whiteSpace=wrap;html=1;fillColor=#f5f5f5;fontColor=#333333;strokeColor=#666666;" vertex="1" parent="1">
          <mxGeometry x="80" y="30" width="1010" height="80" as="geometry" />
        </mxCell>
        <mxCell id="QFDca40fuUY0NI3CXHvM-4" value="Footer" style="rounded=0;whiteSpace=wrap;html=1;fillColor=#f5f5f5;fontColor=#333333;strokeColor=#666666;" vertex="1" parent="1">
          <mxGeometry x="100" y="877" width="1000" height="80" as="geometry" />
        </mxCell>
        <mxCell id="QFDca40fuUY0NI3CXHvM-5" value="" style="rounded=0;whiteSpace=wrap;html=1;fillColor=#b1ddf0;strokeColor=#10739e;" vertex="1" parent="1">
          <mxGeometry x="270" y="175" width="660" height="410" as="geometry" />
        </mxCell>
        <mxCell id="QFDca40fuUY0NI3CXHvM-7" value="&lt;font style=&quot;font-size: 28px;&quot;&gt;&lt;b style=&quot;&quot;&gt;Search Flights&lt;/b&gt;&lt;/font&gt;" style="text;html=1;align=center;verticalAlign=middle;whiteSpace=wrap;rounded=0;" vertex="1" parent="1">
          <mxGeometry x="500" y="180" width="203.75" height="30" as="geometry" />
        </mxCell>
        <mxCell id="QFDca40fuUY0NI3CXHvM-9" value="" style="rounded=0;whiteSpace=wrap;html=1;fillColor=#b1ddf0;strokeColor=#10739e;" vertex="1" parent="1">
          <mxGeometry x="170" y="680" width="120" height="110" as="geometry" />
        </mxCell>
        <mxCell id="QFDca40fuUY0NI3CXHvM-10" value="" style="rounded=0;whiteSpace=wrap;html=1;fillColor=#b1ddf0;strokeColor=#10739e;" vertex="1" parent="1">
          <mxGeometry x="400" y="680" width="120" height="110" as="geometry" />
        </mxCell>
        <mxCell id="QFDca40fuUY0NI3CXHvM-11" value="" style="rounded=0;whiteSpace=wrap;html=1;fillColor=#b1ddf0;strokeColor=#10739e;" vertex="1" parent="1">
          <mxGeometry x="880" y="680" width="120" height="110" as="geometry" />
        </mxCell>
        <mxCell id="QFDca40fuUY0NI3CXHvM-12" value="" style="rounded=0;whiteSpace=wrap;html=1;fillColor=#b1ddf0;strokeColor=#10739e;" vertex="1" parent="1">
          <mxGeometry x="640" y="680" width="120" height="110" as="geometry" />
        </mxCell>
        <mxCell id="QFDca40fuUY0NI3CXHvM-13" value="&lt;font style=&quot;font-size: 22px;&quot;&gt;Most frequent routes&lt;/font&gt;" style="text;html=1;align=center;verticalAlign=middle;whiteSpace=wrap;rounded=0;" vertex="1" parent="1">
          <mxGeometry x="140" y="610" width="260" height="30" as="geometry" />
        </mxCell>
        <mxCell id="QFDca40fuUY0NI3CXHvM-19" value="" style="html=1;shadow=0;dashed=0;shape=mxgraph.bootstrap.radioButton2;labelPosition=right;verticalLabelPosition=middle;align=left;verticalAlign=middle;gradientColor=#DEDEDE;fillColor=#EDEDED;checked=0;spacing=5;checkedFill=#0085FC;checkedStroke=#ffffff;sketch=0;" vertex="1" parent="1">
          <mxGeometry x="325" y="210" width="20" height="20" as="geometry" />
        </mxCell>
        <mxCell id="QFDca40fuUY0NI3CXHvM-21" value="" style="html=1;shadow=0;dashed=0;shape=mxgraph.bootstrap.radioButton2;labelPosition=right;verticalLabelPosition=middle;align=left;verticalAlign=middle;gradientColor=#DEDEDE;fillColor=#EDEDED;checked=0;spacing=5;checkedFill=#0085FC;checkedStroke=#ffffff;sketch=0;" vertex="1" parent="1">
          <mxGeometry x="325" y="250" width="20" height="20" as="geometry" />
        </mxCell>
        <mxCell id="QFDca40fuUY0NI3CXHvM-22" value="One way" style="text;html=1;align=center;verticalAlign=middle;whiteSpace=wrap;rounded=0;" vertex="1" parent="1">
          <mxGeometry x="350" y="205" width="60" height="30" as="geometry" />
        </mxCell>
        <mxCell id="QFDca40fuUY0NI3CXHvM-23" value="Round trip" style="text;html=1;align=center;verticalAlign=middle;whiteSpace=wrap;rounded=0;" vertex="1" parent="1">
          <mxGeometry x="350" y="245" width="60" height="30" as="geometry" />
        </mxCell>
        <mxCell id="QFDca40fuUY0NI3CXHvM-24" value="From" style="rounded=1;whiteSpace=wrap;html=1;" vertex="1" parent="1">
          <mxGeometry x="325" y="290" width="205" height="40" as="geometry" />
        </mxCell>
        <mxCell id="QFDca40fuUY0NI3CXHvM-25" value="To" style="rounded=1;whiteSpace=wrap;html=1;" vertex="1" parent="1">
          <mxGeometry x="547.5" y="290" width="205" height="40" as="geometry" />
        </mxCell>
        <mxCell id="QFDca40fuUY0NI3CXHvM-28" value="Date" style="rounded=1;whiteSpace=wrap;html=1;" vertex="1" parent="1">
          <mxGeometry x="325" y="360" width="155" height="40" as="geometry" />
        </mxCell>
        <mxCell id="QFDca40fuUY0NI3CXHvM-32" value="# travellers" style="rounded=1;whiteSpace=wrap;html=1;" vertex="1" parent="1">
          <mxGeometry x="672.5" y="365" width="55" height="30" as="geometry" />
        </mxCell>
        <mxCell id="QFDca40fuUY0NI3CXHvM-33" value="Return date" style="rounded=1;whiteSpace=wrap;html=1;" vertex="1" parent="1">
          <mxGeometry x="500" y="360" width="155" height="40" as="geometry" />
        </mxCell>
        <mxCell id="QFDca40fuUY0NI3CXHvM-34" value="Search" style="html=1;shadow=0;dashed=0;shape=mxgraph.bootstrap.rrect;rSize=5;strokeColor=none;strokeWidth=1;fillColor=#1CA5B8;fontColor=#FFFFFF;whiteSpace=wrap;align=center;verticalAlign=middle;spacingLeft=0;fontStyle=0;fontSize=16;spacing=5;" vertex="1" parent="1">
          <mxGeometry x="529.5" y="440" width="223" height="40" as="geometry" />
        </mxCell>
      </root>
    </mxGraphModel>
  </diagram>
</mxfile>
